<?xml version="1.0" encoding="UTF-8"?>
<svg version="1.1" xmlns="http://www.w3.org/2000/svg" width="300" height="251">
<path d="M0 0 C10 18.13333333 10 18.13333333 10 22 C3.83458102 25.36114776 -2.3294164 28.70037723 -8.625 31.8125 C-14.85953196 34.89651514 -21.00580086 38.14020133 -27.15087891 41.39770508 C-29.43082314 42.60446778 -31.71468154 43.80345117 -34 45 C-34.74314453 45.39413086 -35.48628906 45.78826172 -36.25195312 46.19433594 C-41.65600264 49 -41.65600264 49 -45 49 C-45.85853105 51.39200789 -46.13366529 52.61653401 -45.28515625 55.05078125 C-44.88167969 55.79714844 -44.47820313 56.54351562 -44.0625 57.3125 C-43.60617188 58.17230469 -43.14984375 59.03210938 -42.6796875 59.91796875 C-42.12539063 60.93503906 -41.57109375 61.95210937 -41 63 C-40.29278431 64.32863689 -39.58714787 65.65811521 -38.8828125 66.98828125 C-36.93359949 70.66521565 -34.96982625 74.33407025 -33 78 C-29.69494762 78 -28.69582632 77.44946286 -25.91015625 75.8125 C-25.12576172 75.36132812 -24.34136719 74.91015625 -23.53320312 74.4453125 C-21.88897716 73.4834728 -20.24574269 72.51993613 -18.60351562 71.5546875 C-17.42499023 70.87792969 -17.42499023 70.87792969 -16.22265625 70.1875 C-15.50859619 69.76855469 -14.79453613 69.34960938 -14.05883789 68.91796875 C-12 68 -12 68 -8 68 C-8.5775 67.13375 -9.155 66.2675 -9.75 65.375 C-10.28947266 64.55708984 -10.28947266 64.55708984 -10.83984375 63.72265625 C-11.95966338 62.05989376 -13.13529168 60.43513849 -14.3125 58.8125 C-14.869375 57.884375 -15.42625 56.95625 -16 56 C-15 53 -15 53 -13.28515625 52.0078125 C-12.18494141 51.57082031 -12.18494141 51.57082031 -11.0625 51.125 C-6.60442231 49.30188836 -2.45584806 47.12165349 1.73828125 44.7578125 C4 44 4 44 6.1171875 44.58984375 C8.41087276 46.30772835 9.42225645 47.93345903 10.8125 50.4375 C12.95587398 54.18975419 15.15906346 57.86715588 17.5 61.5 C18.07878906 62.41007812 18.65757813 63.32015625 19.25390625 64.2578125 C20.42098335 66.09067184 21.59551984 67.91880203 22.77734375 69.7421875 C23.32519531 70.61101562 23.87304688 71.47984375 24.4375 72.375 C25.17806641 73.53128906 25.17806641 73.53128906 25.93359375 74.7109375 C27.19650858 77.42180962 27.38868707 79.0403587 27 82 C25.8984375 84.0703125 25.8984375 84.0703125 24.375 86.125 C19.94350185 92.39420473 16.3975225 99.12482475 13 106 C12.34 106 11.68 106 11 106 C10.731875 106.9075 10.46375 107.815 10.1875 108.75 C9.10423706 111.71471963 8.01640543 113.6169754 6 116 C2.41305569 114.8043519 1.88043547 113.48282102 0.19921875 110.22851562 C-0.11402344 109.59623047 -0.42726563 108.96394531 -0.75 108.3125 C-1.07871094 107.69955078 -1.40742187 107.08660156 -1.74609375 106.45507812 C-3.88244407 102.20491282 -4.28018538 99.56555908 -3 95 C-2.505 93.515 -2.505 93.515 -2 92 C-3.65 92.33 -5.3 92.66 -7 93 C-7 93.66 -7 94.32 -7 95 C-8.95585325 96.00484204 -10.91476237 97.00373805 -12.875 98 C-13.96554688 98.556875 -15.05609375 99.11375 -16.1796875 99.6875 C-19 101 -19 101 -21 101 C-15.5168675 112.10072874 -9.83756023 123.08160031 -4 134 C4.83149136 134.25839264 10.38460186 132.06411496 17 126 C19.99696637 122.73058214 21.89313994 119.34061109 23.81640625 115.359375 C32.08433955 98.87808221 42.32095536 83.36847277 60 76.1875 C66.87487875 73.90984708 73.92058232 73.02663925 81.125 72.6875 C91.90086904 71.87896131 99.66137218 64.93452046 106.5 57.0625 C107.08007812 56.38703125 107.66015625 55.7115625 108.2578125 55.015625 C114.22217251 48.11515468 120.20502483 42.93165839 129 40 C130.70283422 39.91229823 132.40892748 39.88234607 134.11401367 39.88647461 C135.15486618 39.88655014 136.19571869 39.88662567 137.26811218 39.88670349 C138.39006485 39.89186478 139.51201752 39.89702606 140.66796875 39.90234375 C141.81791824 39.9037587 142.96786774 39.90517365 144.15266418 39.90663147 C147.83096908 39.91223571 151.50921345 39.92478896 155.1875 39.9375 C157.67903558 39.94251445 160.17057211 39.94707745 162.66210938 39.95117188 C168.77476296 39.96220653 174.88737121 39.97947405 181 40 C181 44.29 181 48.58 181 53 C178.81274292 53.029729 178.81274292 53.029729 176.58129883 53.06005859 C171.16722451 53.13617587 165.7534168 53.22488429 160.33959961 53.31738281 C157.99720527 53.35564716 155.65475267 53.39050446 153.31225586 53.421875 C149.943636 53.46758025 146.57541627 53.52556661 143.20703125 53.5859375 C142.16102249 53.59748871 141.11501373 53.60903992 140.03730774 53.62094116 C139.05666855 53.64081085 138.07602936 53.66068054 137.06567383 53.68115234 C136.20629715 53.69447601 135.34692047 53.70779968 134.46150208 53.7215271 C124.97918936 54.79427335 118.63530092 63.02650097 113 70 C112.34 70.99 111.68 71.98 111 73 C111.95577942 72.99111755 112.91155884 72.98223511 113.89630127 72.9730835 C122.90126859 72.89201556 131.90616192 72.8320433 140.91141129 72.79275131 C145.54119316 72.77187174 150.17068057 72.74354751 154.80029297 72.69824219 C159.26771694 72.65479737 163.73485759 72.63086568 168.2024765 72.62049103 C169.90736095 72.61309717 171.6122298 72.59865868 173.31699371 72.57707977 C175.70418364 72.54806306 178.0902013 72.54404314 180.47753906 72.54589844 C181.18316483 72.53151733 181.88879059 72.51713623 182.61579895 72.50231934 C185.95792244 72.53044531 187.74002998 72.81036854 190.47015381 74.80181885 C192 77 192 77 192 80.625 C191 84 191 84 189.4019165 85.19674683 C186.12034858 86.29417459 182.98863427 86.26236246 179.56933594 86.22705078 C178.82748047 86.22734283 178.085625 86.22763489 177.32128906 86.22793579 C174.87553099 86.22654533 172.43007968 86.21099765 169.984375 86.1953125 C168.28615485 86.19158136 166.58793255 86.18873486 164.88970947 86.18673706 C160.42462193 86.17910857 155.95966494 86.15946681 151.49462891 86.1373291 C146.9365414 86.11685379 142.37843276 86.10773174 137.8203125 86.09765625 C128.88015104 86.07622018 119.94008639 86.04209368 111 86 C112.11428614 87.28807691 113.23065416 88.57435303 114.34790039 89.85986328 C114.9693544 90.5763504 115.59080841 91.29283752 116.23109436 92.03103638 C118.16124075 94.1794766 120.19940657 96.05136831 122.4375 97.875 C124.49609375 99.5546875 124.49609375 99.5546875 126 101 C126 101.66 126 102.32 126 103 C126.66 103 127.32 103 128 103 C128 103.66 128 104.32 128 105 C128.60499329 105.00364563 129.20998657 105.00729126 129.83331299 105.01104736 C136.12771072 105.05284362 142.42137731 105.12216882 148.71533203 105.20751953 C151.06454152 105.23575288 153.41384641 105.25695558 155.76318359 105.27099609 C159.13949518 105.29239224 162.51465667 105.33902737 165.890625 105.390625 C167.46738007 105.39246796 167.46738007 105.39246796 169.07598877 105.39434814 C176.33857293 105.54037246 176.33857293 105.54037246 179.66308594 107.85058594 C181.50786012 110.8165085 181.57153698 112.57077809 181 116 C179.57275391 118.15649414 179.57275391 118.15649414 177 120 C173.77991666 120.59145695 170.6019624 120.53639386 167.3359375 120.49609375 C166.38868805 120.49754898 165.4414386 120.49900421 164.46548462 120.50050354 C162.45986866 120.49884423 160.45424001 120.48727944 158.44873047 120.46655273 C155.40666299 120.43779928 152.36636143 120.44590361 149.32421875 120.45898438 C147.36978332 120.45274014 145.41535334 120.44434387 143.4609375 120.43359375 C142.56265228 120.43652939 141.66436707 120.43946503 140.73886108 120.44248962 C133.80265731 120.34104216 127.252425 119.1262125 121 116 C121 115.34 121 114.68 121 114 C120.27401611 113.76587402 119.54803223 113.53174805 118.80004883 113.29052734 C115.50612938 111.77237771 113.69532069 109.97568894 111.19921875 107.3515625 C110.30396484 106.42859375 109.40871094 105.505625 108.48632812 104.5546875 C107.08783506 103.0943272 105.69292096 101.6307121 104.30102539 100.1640625 C95.48921909 90.77996806 95.48921909 90.77996806 83.65625 86.46875 C76.5829938 86.53878224 72.06546599 87.33783186 66 91 C65.34 91 64.68 91 64 91 C64 91.66 64 92.32 64 93 C63.34 93 62.68 93 62 93 C62 93.66 62 94.32 62 95 C61.34 95 60.68 95 60 95 C59.731875 95.70125 59.46375 96.4025 59.1875 97.125 C57.9318551 100.1649824 56.49764877 103.0727774 55 106 C54.34 106 53.68 106 53 106 C52.773125 106.99 52.54625 107.98 52.3125 109 C51.23485974 112.81792548 49.3849097 115.74965037 47.21875 119.04296875 C45.83333265 121.26762929 44.853753 123.58686395 43.87890625 126.015625 C42.31483193 129.54695725 40.37893039 132.88259625 38.5 136.25390625 C36.92581604 139.13581075 35.46552876 142.06150325 34 145 C32.80066316 147.27559764 31.59221217 149.54641351 30.375 151.8125 C29.76398438 152.95332031 29.15296875 154.09414062 28.5234375 155.26953125 C27 158 27 158 26 159 C24.55710213 159.09295815 23.10970215 159.11746513 21.66381836 159.11352539 C20.7429393 159.11344986 19.82206024 159.11337433 18.87327576 159.11329651 C17.87224319 159.10813522 16.87121063 159.10297394 15.83984375 159.09765625 C14.82024063 159.0962413 13.80063751 159.09482635 12.75013733 159.09336853 C9.47922893 159.08775097 6.20838787 159.0751955 2.9375 159.0625 C0.72591244 159.05748726 -1.48567618 159.05292396 -3.69726562 159.04882812 C-9.13153357 159.03777584 -14.56576197 159.02102063 -20 159 C-21.60358474 156.13003134 -23.20437227 153.2585116 -24.8046875 150.38671875 C-25.25545654 149.58004761 -25.70622559 148.77337646 -26.1706543 147.94226074 C-29.09363557 142.69290671 -31.86162559 137.39293328 -34.50390625 131.99609375 C-36.29028661 128.41866886 -38.169938 124.89707365 -40.0625 121.375 C-42.2191798 117.35850927 -44.35880666 113.33938155 -46.375 109.25 C-51.38838809 99.10426207 -56.71938165 89.0947897 -62.1875 79.1875 C-64.36295232 75.23877983 -66.38391715 71.2323065 -68.375 67.1875 C-71.43071696 60.98739572 -74.82052009 55.06879305 -78.3984375 49.15625 C-79.99611299 46.00766026 -80.63201901 43.4905625 -81 40 C-79.30755208 39.15377604 -77.61509667 38.30756707 -75.92260742 37.46142578 C-74.4564945 36.72828695 -72.99051449 35.99488229 -71.5246582 35.26123047 C-68.33053571 33.66295049 -65.13551969 32.06698298 -61.93359375 30.484375 C-54.8421916 26.97397963 -47.84348643 23.29933407 -40.84838867 19.60205078 C-36.91811572 17.52705466 -32.9866364 15.4653418 -29 13.5 C-25.72948607 11.87565156 -22.48110337 10.21696987 -19.25 8.515625 C-18.38890625 8.06251953 -17.5278125 7.60941406 -16.640625 7.14257812 C-13.36356281 5.41436411 -10.08732866 3.68459128 -6.8125 1.95214844 C-3.09641026 0 -3.09641026 0 0 0 Z " fill="#F2F2F2" transform="translate(95,46)"/>
<path d="M0 0 C8.91 0 17.82 0 27 0 C26.16274199 4.18629004 25.58065208 6.11467315 23.5625 9.625 C20.61310533 14.86994763 17.78943621 20.16898489 15 25.5 C11.88485682 31.43793595 8.74474652 37.35774561 5.5078125 43.23046875 C4.2972912 45.45393923 3.10792811 47.68520131 1.9296875 49.92578125 C1.56891113 50.60995117 1.20813477 51.29412109 0.83642578 51.99902344 C0.12601237 53.34832998 -0.58146996 54.69918488 -1.28564453 56.05175781 C-2.67614167 58.68864476 -3.87895784 60.87895784 -6 63 C-7.85625 63.1546875 -7.85625 63.1546875 -9.75 63.3125 C-19.34147698 64.18022651 -28.60210586 68.46513716 -37 73 C-37.62109375 71.20703125 -37.62109375 71.20703125 -38 69 C-36.93256413 67.175029 -35.84289442 65.36054533 -34.6640625 63.60546875 C-32.57060612 60.3276861 -30.75472168 56.93659553 -28.9375 53.5 C-28.60951416 52.88342529 -28.28152832 52.26685059 -27.94360352 51.6315918 C-26.26122779 48.45106658 -24.62045418 45.2535499 -23.01953125 42.03125 C-21.00419318 37.97998418 -18.88432297 33.98951674 -16.75 30 C-12.35078662 21.73959325 -8.14447635 13.39058836 -4 5 C-3.34 5 -2.68 5 -2 5 C-1.34 3.35 -0.68 1.7 0 0 Z " fill="#F1F1F0" transform="translate(177,46)"/>
<path d="M0 0 C0.66 0.33 1.32 0.66 2 1 C1.22914063 1.69867188 0.45828125 2.39734375 -0.3359375 3.1171875 C-1.34898233 4.03643189 -2.36200185 4.95570418 -3.375 5.875 C-4.13683594 6.56529297 -4.13683594 6.56529297 -4.9140625 7.26953125 C-6.98091811 9.14601858 -9.02570548 11.02570548 -11 13 C-12.31747324 13.69748583 -13.64914193 14.36959957 -15 15 C-11.35080799 8.27780419 -6.18546611 4.24492773 0 0 Z " fill="#B3B3B3" transform="translate(147,126)"/>
<path d="M0 0 C0 4.35637821 -2.27897057 6.05610053 -5.109375 9.19140625 C-7.24427494 11.23367623 -9.12212703 12.30233382 -12 13 C-8.19524578 8.43969176 -4.25030379 4.14910608 0 0 Z " fill="#C3C3C3" transform="translate(205,99)"/>
<path d="M0 0 C-2.64 1.65 -5.28 3.3 -8 5 C-8.66 4.34 -9.32 3.68 -10 3 C-3.375 -1.125 -3.375 -1.125 0 0 Z " fill="#ABABAB" transform="translate(99,92)"/>
</svg>
